<mxfile host="app.diagrams.net" agent="Mozilla/5.0 (Windows NT 10.0; Win64; x64) AppleWebKit/537.36 (KHTML, like Gecko) Chrome/130.0.0.0 Safari/537.36 Edg/130.0.0.0" version="24.8.0">
  <diagram name="第 1 页" id="cm5Ya6ozmYYqIcnB_r1B">
    <mxGraphModel dx="1440" dy="2169" grid="1" gridSize="6" guides="1" tooltips="1" connect="1" arrows="1" fold="1" page="0" pageScale="1" pageWidth="827" pageHeight="1169" math="1" shadow="0">
      <root>
        <mxCell id="0" />
        <mxCell id="1" parent="0" />
        <mxCell id="xIv8xeVho2d32qd__GRO-5" value="" style="edgeStyle=entityRelationEdgeStyle;startArrow=none;endArrow=none;segment=10;curved=1;fontSize=12;startSize=8;endSize=8;" edge="1" source="xIv8xeVho2d32qd__GRO-7" target="xIv8xeVho2d32qd__GRO-8" parent="1">
          <mxGeometry relative="1" as="geometry" />
        </mxCell>
        <mxCell id="xIv8xeVho2d32qd__GRO-6" value="" style="edgeStyle=entityRelationEdgeStyle;startArrow=none;endArrow=none;segment=10;curved=1;fontSize=12;startSize=8;endSize=8;" edge="1" source="xIv8xeVho2d32qd__GRO-7" target="xIv8xeVho2d32qd__GRO-9" parent="1">
          <mxGeometry relative="1" as="geometry">
            <mxPoint x="44" y="-460" as="sourcePoint" />
          </mxGeometry>
        </mxCell>
        <UserObject label="filesman" treeRoot="1" id="xIv8xeVho2d32qd__GRO-7">
          <mxCell style="ellipse;whiteSpace=wrap;html=1;align=center;collapsible=0;container=1;recursiveResize=0;" vertex="1" parent="1">
            <mxGeometry x="-168" y="-450" width="100" height="40" as="geometry" />
          </mxCell>
        </UserObject>
        <mxCell id="xIv8xeVho2d32qd__GRO-8" value="Situations:" style="whiteSpace=wrap;html=1;shape=partialRectangle;top=0;left=0;bottom=1;right=0;points=[[0,1],[1,1]];strokeColor=#000000;fillColor=none;align=center;verticalAlign=bottom;routingCenterY=0.5;snapToPoint=1;collapsible=0;container=1;recursiveResize=0;autosize=1;" vertex="1" parent="1">
          <mxGeometry x="54" y="-468" width="90" height="36" as="geometry" />
        </mxCell>
        <mxCell id="xIv8xeVho2d32qd__GRO-9" value="Task:" style="whiteSpace=wrap;html=1;rounded=1;arcSize=50;align=center;verticalAlign=middle;collapsible=0;container=1;recursiveResize=0;strokeWidth=1;autosize=1;spacing=4;" vertex="1" parent="1">
          <mxGeometry x="-33" y="-330" width="60" height="36" as="geometry" />
        </mxCell>
        <mxCell id="xIv8xeVho2d32qd__GRO-16" style="edgeStyle=none;curved=1;orthogonalLoop=1;jettySize=auto;html=1;fontSize=12;startSize=8;endSize=8;" edge="1" parent="1" source="xIv8xeVho2d32qd__GRO-15" target="xIv8xeVho2d32qd__GRO-7">
          <mxGeometry relative="1" as="geometry" />
        </mxCell>
        <mxCell id="xIv8xeVho2d32qd__GRO-15" value="A muti-threads tools for moving and renaming files/dirs" style="rounded=1;whiteSpace=wrap;html=1;" vertex="1" parent="1">
          <mxGeometry x="-228" y="-558" width="214" height="60" as="geometry" />
        </mxCell>
        <mxCell id="xIv8xeVho2d32qd__GRO-17" value="" style="edgeStyle=entityRelationEdgeStyle;startArrow=none;endArrow=none;segment=10;curved=1;fontSize=12;startSize=8;endSize=8;" edge="1" target="xIv8xeVho2d32qd__GRO-18" source="xIv8xeVho2d32qd__GRO-8" parent="1">
          <mxGeometry relative="1" as="geometry">
            <mxPoint x="-68" y="-430" as="sourcePoint" />
          </mxGeometry>
        </mxCell>
        <mxCell id="xIv8xeVho2d32qd__GRO-18" value="2. Making a ease to use tool to show the result and help more people" style="whiteSpace=wrap;html=1;shape=partialRectangle;top=0;left=0;bottom=1;right=0;points=[[0,1],[1,1]];strokeColor=#000000;fillColor=none;align=center;verticalAlign=bottom;routingCenterY=0.5;snapToPoint=1;collapsible=0;container=1;recursiveResize=0;autosize=1;" vertex="1" parent="1">
          <mxGeometry x="216" y="-468" width="438" height="36" as="geometry" />
        </mxCell>
        <mxCell id="xIv8xeVho2d32qd__GRO-19" value="" style="edgeStyle=entityRelationEdgeStyle;startArrow=none;endArrow=none;segment=10;curved=1;fontSize=12;startSize=8;endSize=8;" edge="1" target="xIv8xeVho2d32qd__GRO-20" source="xIv8xeVho2d32qd__GRO-8" parent="1">
          <mxGeometry relative="1" as="geometry">
            <mxPoint x="144" y="-432" as="sourcePoint" />
          </mxGeometry>
        </mxCell>
        <mxCell id="xIv8xeVho2d32qd__GRO-20" value="1. Study the async/thread usage of Rust" style="whiteSpace=wrap;html=1;shape=partialRectangle;top=0;left=0;bottom=1;right=0;points=[[0,1],[1,1]];strokeColor=#000000;fillColor=none;align=center;verticalAlign=bottom;routingCenterY=0.5;snapToPoint=1;collapsible=0;container=1;recursiveResize=0;autosize=1;" vertex="1" parent="1">
          <mxGeometry x="174" y="-504" width="344" height="36" as="geometry" />
        </mxCell>
        <mxCell id="xIv8xeVho2d32qd__GRO-21" value="" style="edgeStyle=entityRelationEdgeStyle;startArrow=none;endArrow=none;segment=10;curved=1;fontSize=12;startSize=8;endSize=8;" edge="1" target="xIv8xeVho2d32qd__GRO-22" source="xIv8xeVho2d32qd__GRO-8" parent="1">
          <mxGeometry relative="1" as="geometry">
            <mxPoint x="144" y="-432" as="sourcePoint" />
          </mxGeometry>
        </mxCell>
        <mxCell id="xIv8xeVho2d32qd__GRO-22" value="3. Trying to study the SQLite and Tauri which would create a UI after building the cmd tool" style="whiteSpace=wrap;html=1;shape=partialRectangle;top=0;left=0;bottom=1;right=0;points=[[0,1],[1,1]];strokeColor=#000000;fillColor=none;align=center;verticalAlign=bottom;routingCenterY=0.5;snapToPoint=1;collapsible=0;container=1;recursiveResize=0;autosize=1;" vertex="1" parent="1">
          <mxGeometry x="198" y="-432" width="593" height="36" as="geometry" />
        </mxCell>
        <mxCell id="xIv8xeVho2d32qd__GRO-23" value="" style="edgeStyle=entityRelationEdgeStyle;startArrow=none;endArrow=none;segment=10;curved=1;fontSize=12;startSize=8;endSize=8;" edge="1" target="xIv8xeVho2d32qd__GRO-24" source="xIv8xeVho2d32qd__GRO-7" parent="1">
          <mxGeometry relative="1" as="geometry">
            <mxPoint x="-68" y="-430" as="sourcePoint" />
          </mxGeometry>
        </mxCell>
        <mxCell id="xIv8xeVho2d32qd__GRO-24" value="Sub Topic" style="whiteSpace=wrap;html=1;rounded=1;arcSize=50;align=center;verticalAlign=middle;collapsible=0;container=1;recursiveResize=0;strokeWidth=1;autosize=1;spacing=4;" vertex="1" parent="1">
          <mxGeometry x="-48" y="-180" width="90" height="36" as="geometry" />
        </mxCell>
        <mxCell id="xIv8xeVho2d32qd__GRO-25" value="" style="edgeStyle=entityRelationEdgeStyle;startArrow=none;endArrow=none;segment=10;curved=1;fontSize=12;startSize=8;endSize=8;" edge="1" target="xIv8xeVho2d32qd__GRO-26" source="xIv8xeVho2d32qd__GRO-7" parent="1">
          <mxGeometry relative="1" as="geometry">
            <mxPoint x="-68" y="-430" as="sourcePoint" />
          </mxGeometry>
        </mxCell>
        <mxCell id="xIv8xeVho2d32qd__GRO-26" value="Sub Topic" style="whiteSpace=wrap;html=1;rounded=1;arcSize=50;align=center;verticalAlign=middle;collapsible=0;container=1;recursiveResize=0;strokeWidth=1;autosize=1;spacing=4;" vertex="1" parent="1">
          <mxGeometry x="-48" y="6" width="90" height="36" as="geometry" />
        </mxCell>
        <mxCell id="xIv8xeVho2d32qd__GRO-28" value="" style="edgeStyle=entityRelationEdgeStyle;startArrow=none;endArrow=none;segment=10;curved=1;fontSize=12;startSize=8;endSize=8;" edge="1" target="xIv8xeVho2d32qd__GRO-29" source="xIv8xeVho2d32qd__GRO-9" parent="1">
          <mxGeometry relative="1" as="geometry">
            <mxPoint x="-68" y="-430" as="sourcePoint" />
          </mxGeometry>
        </mxCell>
        <mxCell id="xIv8xeVho2d32qd__GRO-29" value="1. Create the cmd tool" style="whiteSpace=wrap;html=1;rounded=1;arcSize=50;align=center;verticalAlign=middle;collapsible=0;container=1;recursiveResize=0;strokeWidth=1;autosize=1;spacing=4;" vertex="1" parent="1">
          <mxGeometry x="54" y="-330" width="168" height="36" as="geometry" />
        </mxCell>
        <mxCell id="xIv8xeVho2d32qd__GRO-30" value="" style="edgeStyle=entityRelationEdgeStyle;startArrow=none;endArrow=none;segment=10;curved=1;fontSize=12;startSize=8;endSize=8;" edge="1" target="xIv8xeVho2d32qd__GRO-31" source="xIv8xeVho2d32qd__GRO-29" parent="1">
          <mxGeometry relative="1" as="geometry">
            <mxPoint x="-57" y="-312" as="sourcePoint" />
          </mxGeometry>
        </mxCell>
        <mxCell id="xIv8xeVho2d32qd__GRO-31" value="1. Iterate the target dir and show all files with pattern set by user" style="whiteSpace=wrap;html=1;rounded=1;arcSize=50;align=center;verticalAlign=middle;collapsible=0;container=1;recursiveResize=0;strokeWidth=1;autosize=1;spacing=4;" vertex="1" parent="1">
          <mxGeometry x="258" y="-330" width="426" height="36" as="geometry" />
        </mxCell>
        <mxCell id="xIv8xeVho2d32qd__GRO-32" value="" style="edgeStyle=entityRelationEdgeStyle;startArrow=none;endArrow=none;segment=10;curved=1;fontSize=12;startSize=8;endSize=8;" edge="1" target="xIv8xeVho2d32qd__GRO-33" source="xIv8xeVho2d32qd__GRO-31" parent="1">
          <mxGeometry relative="1" as="geometry">
            <mxPoint x="195" y="-312" as="sourcePoint" />
          </mxGeometry>
        </mxCell>
        <mxCell id="xIv8xeVho2d32qd__GRO-33" value="1. Iterate target path and save all dirs/files in order&amp;nbsp;" style="whiteSpace=wrap;html=1;rounded=1;arcSize=50;align=center;verticalAlign=middle;collapsible=0;container=1;recursiveResize=0;strokeWidth=1;autosize=1;spacing=4;" vertex="1" parent="1">
          <mxGeometry x="783" y="-330" width="339" height="36" as="geometry" />
        </mxCell>
        <mxCell id="xIv8xeVho2d32qd__GRO-34" value="" style="edgeStyle=entityRelationEdgeStyle;startArrow=none;endArrow=none;segment=10;curved=1;fontSize=12;startSize=8;endSize=8;" edge="1" target="xIv8xeVho2d32qd__GRO-35" source="xIv8xeVho2d32qd__GRO-31" parent="1">
          <mxGeometry relative="1" as="geometry">
            <mxPoint x="684" y="-312" as="sourcePoint" />
          </mxGeometry>
        </mxCell>
        <mxCell id="xIv8xeVho2d32qd__GRO-35" value="2. pattern parser" style="whiteSpace=wrap;html=1;rounded=1;arcSize=50;align=center;verticalAlign=middle;collapsible=0;container=1;recursiveResize=0;strokeWidth=1;autosize=1;spacing=4;" vertex="1" parent="1">
          <mxGeometry x="783" y="-276" width="132" height="36" as="geometry" />
        </mxCell>
        <mxCell id="xIv8xeVho2d32qd__GRO-36" value="" style="edgeStyle=entityRelationEdgeStyle;startArrow=none;endArrow=none;segment=10;curved=1;fontSize=12;startSize=8;endSize=8;" edge="1" target="xIv8xeVho2d32qd__GRO-37" source="xIv8xeVho2d32qd__GRO-31" parent="1">
          <mxGeometry relative="1" as="geometry">
            <mxPoint x="684" y="-312" as="sourcePoint" />
          </mxGeometry>
        </mxCell>
        <mxCell id="xIv8xeVho2d32qd__GRO-37" value="3. Display all the info to user" style="whiteSpace=wrap;html=1;rounded=1;arcSize=50;align=center;verticalAlign=middle;collapsible=0;container=1;recursiveResize=0;strokeWidth=1;autosize=1;spacing=4;" vertex="1" parent="1">
          <mxGeometry x="783" y="-222" width="216" height="36" as="geometry" />
        </mxCell>
        <mxCell id="xIv8xeVho2d32qd__GRO-38" value="" style="edgeStyle=entityRelationEdgeStyle;startArrow=none;endArrow=none;segment=10;curved=1;fontSize=12;startSize=8;endSize=8;" edge="1" target="xIv8xeVho2d32qd__GRO-39" source="xIv8xeVho2d32qd__GRO-29" parent="1">
          <mxGeometry relative="1" as="geometry">
            <mxPoint x="222" y="-312" as="sourcePoint" />
          </mxGeometry>
        </mxCell>
        <mxCell id="xIv8xeVho2d32qd__GRO-39" value="2. Logger" style="whiteSpace=wrap;html=1;rounded=1;arcSize=50;align=center;verticalAlign=middle;collapsible=0;container=1;recursiveResize=0;strokeWidth=1;autosize=1;spacing=4;" vertex="1" parent="1">
          <mxGeometry x="258" y="-252" width="123" height="36" as="geometry" />
        </mxCell>
        <mxCell id="xIv8xeVho2d32qd__GRO-40" value="" style="edgeStyle=entityRelationEdgeStyle;startArrow=none;endArrow=none;segment=10;curved=1;fontSize=12;startSize=8;endSize=8;" edge="1" target="xIv8xeVho2d32qd__GRO-41" source="xIv8xeVho2d32qd__GRO-39" parent="1">
          <mxGeometry relative="1" as="geometry">
            <mxPoint x="222" y="-312" as="sourcePoint" />
          </mxGeometry>
        </mxCell>
        <mxCell id="xIv8xeVho2d32qd__GRO-41" value="1. logging on terminal" style="whiteSpace=wrap;html=1;rounded=1;arcSize=50;align=center;verticalAlign=middle;collapsible=0;container=1;recursiveResize=0;strokeWidth=1;autosize=1;spacing=4;" vertex="1" parent="1">
          <mxGeometry x="402" y="-252" width="162" height="36" as="geometry" />
        </mxCell>
        <mxCell id="xIv8xeVho2d32qd__GRO-42" value="" style="edgeStyle=entityRelationEdgeStyle;startArrow=none;endArrow=none;segment=10;curved=1;fontSize=12;startSize=8;endSize=8;" edge="1" target="xIv8xeVho2d32qd__GRO-43" source="xIv8xeVho2d32qd__GRO-39" parent="1">
          <mxGeometry relative="1" as="geometry">
            <mxPoint x="381" y="-234" as="sourcePoint" />
          </mxGeometry>
        </mxCell>
        <mxCell id="xIv8xeVho2d32qd__GRO-43" value="2. logging into file" style="whiteSpace=wrap;html=1;rounded=1;arcSize=50;align=center;verticalAlign=middle;collapsible=0;container=1;recursiveResize=0;strokeWidth=1;autosize=1;spacing=4;" vertex="1" parent="1">
          <mxGeometry x="402" y="-206" width="126" height="36" as="geometry" />
        </mxCell>
        <mxCell id="xIv8xeVho2d32qd__GRO-44" value="" style="edgeStyle=entityRelationEdgeStyle;startArrow=none;endArrow=none;segment=10;curved=1;fontSize=12;startSize=8;endSize=8;" edge="1" target="xIv8xeVho2d32qd__GRO-45" source="xIv8xeVho2d32qd__GRO-43" parent="1">
          <mxGeometry relative="1" as="geometry">
            <mxPoint x="381" y="-234" as="sourcePoint" />
          </mxGeometry>
        </mxCell>
        <mxCell id="xIv8xeVho2d32qd__GRO-45" value="1. txt file?" style="whiteSpace=wrap;html=1;rounded=1;arcSize=50;align=center;verticalAlign=middle;collapsible=0;container=1;recursiveResize=0;strokeWidth=1;autosize=1;spacing=4;" vertex="1" parent="1">
          <mxGeometry x="586" y="-206" width="90" height="36" as="geometry" />
        </mxCell>
        <mxCell id="xIv8xeVho2d32qd__GRO-46" value="" style="edgeStyle=entityRelationEdgeStyle;startArrow=none;endArrow=none;segment=10;curved=1;fontSize=12;startSize=8;endSize=8;" edge="1" target="xIv8xeVho2d32qd__GRO-47" source="xIv8xeVho2d32qd__GRO-43" parent="1">
          <mxGeometry relative="1" as="geometry">
            <mxPoint x="528" y="-188" as="sourcePoint" />
          </mxGeometry>
        </mxCell>
        <mxCell id="xIv8xeVho2d32qd__GRO-47" value="2. database(SQLite/Postgresql)" style="whiteSpace=wrap;html=1;rounded=1;arcSize=50;align=center;verticalAlign=middle;collapsible=0;container=1;recursiveResize=0;strokeWidth=1;autosize=1;spacing=4;" vertex="1" parent="1">
          <mxGeometry x="586" y="-156" width="224" height="36" as="geometry" />
        </mxCell>
        <mxCell id="xIv8xeVho2d32qd__GRO-48" value="" style="edgeStyle=entityRelationEdgeStyle;startArrow=none;endArrow=none;segment=10;curved=1;fontSize=12;startSize=8;endSize=8;" edge="1" target="xIv8xeVho2d32qd__GRO-49" source="xIv8xeVho2d32qd__GRO-29" parent="1">
          <mxGeometry relative="1" as="geometry">
            <mxPoint x="222" y="-312" as="sourcePoint" />
          </mxGeometry>
        </mxCell>
        <mxCell id="xIv8xeVho2d32qd__GRO-49" value="3. IOoperator" style="whiteSpace=wrap;html=1;rounded=1;arcSize=50;align=center;verticalAlign=middle;collapsible=0;container=1;recursiveResize=0;strokeWidth=1;autosize=1;spacing=4;" vertex="1" parent="1">
          <mxGeometry x="258" y="-170" width="108" height="36" as="geometry" />
        </mxCell>
        <mxCell id="xIv8xeVho2d32qd__GRO-50" value="" style="edgeStyle=entityRelationEdgeStyle;startArrow=none;endArrow=none;segment=10;curved=1;fontSize=12;startSize=8;endSize=8;" edge="1" target="xIv8xeVho2d32qd__GRO-53" source="xIv8xeVho2d32qd__GRO-49" parent="1">
          <mxGeometry relative="1" as="geometry">
            <mxPoint x="235" y="-312" as="sourcePoint" />
          </mxGeometry>
        </mxCell>
        <mxCell id="xIv8xeVho2d32qd__GRO-67" style="edgeStyle=none;curved=1;orthogonalLoop=1;jettySize=auto;html=1;exitX=1;exitY=0.5;exitDx=0;exitDy=0;entryX=0;entryY=0.5;entryDx=0;entryDy=0;fontSize=12;startSize=8;endSize=8;" edge="1" parent="1" source="xIv8xeVho2d32qd__GRO-53" target="xIv8xeVho2d32qd__GRO-60">
          <mxGeometry relative="1" as="geometry" />
        </mxCell>
        <mxCell id="xIv8xeVho2d32qd__GRO-53" value="1. stdin" style="whiteSpace=wrap;html=1;rounded=1;arcSize=50;align=center;verticalAlign=middle;collapsible=0;container=1;recursiveResize=0;strokeWidth=1;autosize=1;spacing=4;" vertex="1" parent="1">
          <mxGeometry x="454.5" y="-96" width="73.5" height="36" as="geometry" />
        </mxCell>
        <mxCell id="xIv8xeVho2d32qd__GRO-55" value="" style="edgeStyle=entityRelationEdgeStyle;startArrow=none;endArrow=none;segment=10;curved=1;fontSize=12;startSize=8;endSize=8;" edge="1" target="xIv8xeVho2d32qd__GRO-56" source="xIv8xeVho2d32qd__GRO-49" parent="1">
          <mxGeometry relative="1" as="geometry">
            <mxPoint x="388" y="-108" as="sourcePoint" />
          </mxGeometry>
        </mxCell>
        <mxCell id="xIv8xeVho2d32qd__GRO-69" style="edgeStyle=none;curved=1;orthogonalLoop=1;jettySize=auto;html=1;exitX=1;exitY=0.5;exitDx=0;exitDy=0;entryX=0;entryY=0.5;entryDx=0;entryDy=0;fontSize=12;startSize=8;endSize=8;" edge="1" parent="1" source="xIv8xeVho2d32qd__GRO-56" target="xIv8xeVho2d32qd__GRO-60">
          <mxGeometry relative="1" as="geometry" />
        </mxCell>
        <mxCell id="xIv8xeVho2d32qd__GRO-77" style="edgeStyle=none;curved=1;orthogonalLoop=1;jettySize=auto;html=1;exitX=1;exitY=0.5;exitDx=0;exitDy=0;entryX=0;entryY=0.5;entryDx=0;entryDy=0;fontSize=12;startSize=8;endSize=8;" edge="1" parent="1" source="xIv8xeVho2d32qd__GRO-56" target="xIv8xeVho2d32qd__GRO-75">
          <mxGeometry relative="1" as="geometry" />
        </mxCell>
        <mxCell id="xIv8xeVho2d32qd__GRO-56" value="2. stdout" style="whiteSpace=wrap;html=1;rounded=1;arcSize=50;align=center;verticalAlign=middle;collapsible=0;container=1;recursiveResize=0;strokeWidth=1;autosize=1;spacing=4;" vertex="1" parent="1">
          <mxGeometry x="448.5" y="42" width="84" height="36" as="geometry" />
        </mxCell>
        <mxCell id="xIv8xeVho2d32qd__GRO-65" value="" style="group" vertex="1" connectable="0" parent="1">
          <mxGeometry x="540" y="-72" width="159" height="126" as="geometry" />
        </mxCell>
        <mxCell id="xIv8xeVho2d32qd__GRO-58" value="1. terminal" style="whiteSpace=wrap;html=1;rounded=1;arcSize=50;align=center;verticalAlign=middle;collapsible=0;container=1;recursiveResize=0;strokeWidth=1;autosize=1;spacing=4;" vertex="1" parent="xIv8xeVho2d32qd__GRO-65">
          <mxGeometry x="12" width="90" height="36" as="geometry" />
        </mxCell>
        <mxCell id="xIv8xeVho2d32qd__GRO-60" value="2. file" style="whiteSpace=wrap;html=1;rounded=1;arcSize=50;align=center;verticalAlign=middle;collapsible=0;container=1;recursiveResize=0;strokeWidth=1;autosize=1;spacing=4;" vertex="1" parent="xIv8xeVho2d32qd__GRO-65">
          <mxGeometry x="12" y="46" width="60" height="36" as="geometry" />
        </mxCell>
        <mxCell id="xIv8xeVho2d32qd__GRO-62" value="3. Stream(X)" style="whiteSpace=wrap;html=1;rounded=1;arcSize=50;align=center;verticalAlign=middle;collapsible=0;container=1;recursiveResize=0;strokeWidth=1;autosize=1;spacing=4;" vertex="1" parent="xIv8xeVho2d32qd__GRO-65">
          <mxGeometry x="12" y="90" width="108" height="36" as="geometry" />
        </mxCell>
        <mxCell id="xIv8xeVho2d32qd__GRO-70" value="reader" style="whiteSpace=wrap;html=1;rounded=1;arcSize=50;align=center;verticalAlign=middle;collapsible=0;container=1;recursiveResize=0;strokeWidth=1;autosize=1;spacing=4;" vertex="1" parent="1">
          <mxGeometry x="759" y="-102" width="66" height="36" as="geometry" />
        </mxCell>
        <mxCell id="xIv8xeVho2d32qd__GRO-71" value="" style="edgeStyle=none;curved=1;orthogonalLoop=1;jettySize=auto;html=1;fontSize=12;startSize=8;endSize=8;entryX=0;entryY=0.5;entryDx=0;entryDy=0;" edge="1" parent="1" source="xIv8xeVho2d32qd__GRO-60" target="xIv8xeVho2d32qd__GRO-70">
          <mxGeometry relative="1" as="geometry" />
        </mxCell>
        <mxCell id="xIv8xeVho2d32qd__GRO-75" value="writer" style="whiteSpace=wrap;html=1;rounded=1;arcSize=50;align=center;verticalAlign=middle;collapsible=0;container=1;recursiveResize=0;strokeWidth=1;autosize=1;spacing=4;" vertex="1" parent="1">
          <mxGeometry x="759" y="42" width="60" height="36" as="geometry" />
        </mxCell>
        <mxCell id="xIv8xeVho2d32qd__GRO-74" style="edgeStyle=none;curved=1;orthogonalLoop=1;jettySize=auto;html=1;exitX=1;exitY=0.5;exitDx=0;exitDy=0;fontSize=12;startSize=8;endSize=8;entryX=0;entryY=0.5;entryDx=0;entryDy=0;" edge="1" parent="1" source="xIv8xeVho2d32qd__GRO-60" target="xIv8xeVho2d32qd__GRO-75">
          <mxGeometry relative="1" as="geometry">
            <mxPoint x="720" y="24" as="targetPoint" />
          </mxGeometry>
        </mxCell>
        <mxCell id="xIv8xeVho2d32qd__GRO-76" style="orthogonalLoop=1;jettySize=auto;html=1;exitX=1;exitY=0.5;exitDx=0;exitDy=0;entryX=-0.07;entryY=0.54;entryDx=0;entryDy=0;entryPerimeter=0;fontSize=12;startSize=8;endSize=8;elbow=vertical;" edge="1" parent="1" source="xIv8xeVho2d32qd__GRO-53" target="xIv8xeVho2d32qd__GRO-70">
          <mxGeometry relative="1" as="geometry" />
        </mxCell>
      </root>
    </mxGraphModel>
  </diagram>
</mxfile>
